<?xml version="1.0" standalone="no"?>
<!DOCTYPE svg PUBLIC "-//W3C//DTD SVG 20010904//EN"
 "http://www.w3.org/TR/2001/REC-SVG-20010904/DTD/svg10.dtd">
<svg version="1.0" xmlns="http://www.w3.org/2000/svg"
 width="360.000000pt" height="405.000000pt" viewBox="0 0 360.000000 405.000000"
 preserveAspectRatio="xMidYMid meet">

<g transform="translate(0.000000,405.000000) scale(0.100000,-0.100000)"
fill="#000000" stroke="none">
<path d="M830 3605 c-120 -26 -327 -152 -327 -199 0 -17 1 -17 67 40 14 12 39
29 55 39 l30 17 -30 -23 c-137 -108 -224 -232 -271 -389 -20 -64 -23 -70 -24
-40 l-2 35 -9 -30 c-6 -18 -9 -283 -7 -685 2 -360 -1 -776 -6 -925 -10 -315
-3 -366 65 -505 34 -68 59 -102 128 -171 93 -93 171 -142 286 -181 l70 -23
890 -3 c961 -3 1069 1 1179 42 157 59 294 185 372 341 74 149 78 186 70 690
-3 237 -9 511 -12 610 -4 128 -2 176 5 165 18 -25 14 590 -4 666 -15 67 -45
147 -52 141 -2 -2 1 -16 7 -31 7 -20 7 -25 -2 -20 -7 5 -9 2 -5 -9 3 -8 8 -33
11 -54 6 -35 5 -34 -13 14 -64 171 -181 312 -321 383 -84 43 -155 62 -265 71
-119 9 -417 0 -375 -12 14 -4 21 -8 15 -9 -5 -1 4 -5 20 -9 26 -6 20 -8 -35
-15 -52 -7 -60 -10 -40 -16 21 -7 19 -8 -15 -9 -22 -1 -59 -6 -81 -11 -29 -7
-68 -5 -130 4 -49 8 -85 14 -80 15 4 1 -2 10 -15 21 -19 15 -21 22 -11 28 25
16 -117 22 -608 24 -296 1 -448 4 -390 8 52 4 199 9 325 10 127 1 239 5 250
10 36 15 -641 10 -715 -5z m1655 -164 l160 -8 -235 -1 c-532 -5 -1508 -7
-1505 -4 19 20 1213 29 1580 13z m-1648 -45 c-162 -67 -258 -181 -314 -370
-22 -78 -23 -79 -18 -28 12 111 80 234 176 315 47 40 171 107 198 107 9 0 -10
-11 -42 -24z m2178 -36 c27 -29 23 -27 -27 10 -32 24 -58 45 -58 47 0 10 59
-29 85 -57z m-272 35 c88 -18 184 -72 236 -131 35 -40 49 -64 38 -64 -2 0 -27
23 -57 51 -32 29 -91 68 -140 92 l-85 42 -510 7 c-280 4 -530 9 -555 11 -25 2
191 4 480 5 425 1 538 -1 593 -13z m347 -207 c7 -15 3 -13 -12 7 -12 17 -43
53 -68 81 -39 44 -37 43 12 -7 31 -32 62 -69 68 -81z m-2617 -99 c-12 -45 -23
-90 -23 -100 0 -11 -5 -19 -11 -19 -16 0 -1 87 26 148 13 28 26 52 28 52 2 0
-7 -37 -20 -81z m118 -3 c-9 -19 -10 -18 -5 9 l5 30 -15 -25 c-18 -30 -21 -21
-4 15 10 22 13 24 21 9 6 -10 5 -24 -2 -38z m2736 -48 c-3 -8 -6 -5 -6 6 -1
11 2 17 5 13 3 -3 4 -12 1 -19z m-2890 -475 c-1 -71 -3 -13 -3 127 0 140 2
198 3 128 2 -71 2 -185 0 -255z m70 185 c-2 -35 -3 -7 -3 62 0 69 1 97 3 63 2
-35 2 -91 0 -125z m2067 72 c14 -5 32 -23 41 -40 19 -37 30 27 -131 -780 -85
-421 -131 -633 -143 -650 -22 -31 -81 -48 -113 -32 -13 6 -144 108 -293 227
-267 213 -270 215 -277 188 -8 -32 -45 -247 -54 -313 l-6 -45 118 115 118 115
-125 -134 c-69 -74 -131 -137 -139 -139 -7 -3 -4 5 7 17 12 12 19 30 16 39 -2
9 10 96 27 192 17 96 31 184 31 195 0 11 25 47 58 80 56 58 465 510 546 603
l40 46 -40 -24 c-68 -42 -572 -388 -709 -487 -70 -51 -134 -93 -140 -93 -30 0
-443 143 -453 158 -20 24 -15 56 10 79 12 11 130 68 262 126 469 207 1252 544
1295 558 14 4 26 8 27 8 1 1 13 -3 27 -9z m763 -132 c-3 -8 -6 -5 -6 6 -1 11
2 17 5 13 3 -3 4 -12 1 -19z m-200 -80 c-2 -18 -4 -4 -4 32 0 36 2 50 4 33 2
-18 2 -48 0 -65z m0 -255 c-2 -38 -3 -7 -3 67 0 74 1 105 3 68 2 -38 2 -98 0
-135z m-2687 -243 c0 -200 -4 -310 -10 -310 -6 0 -10 110 -10 310 0 200 4 310
10 310 6 0 10 -110 10 -310z m987 -262 c-3 -8 -6 -5 -6 6 -1 11 2 17 5 13 3
-3 4 -12 1 -19z m1864 -319 c17 -10 18 -117 1 -128 -6 -4 -15 -36 -19 -71 -3
-35 -11 -73 -17 -85 -9 -17 -12 -4 -14 65 -5 166 -4 206 6 325 6 66 12 131 13
145 1 14 5 -35 10 -109 5 -92 11 -136 20 -142z m-1804 9 c-3 -7 -5 -2 -5 12 0
14 2 19 5 13 2 -7 2 -19 0 -25z m10 -50 c-3 -7 -5 -2 -5 12 0 14 2 19 5 13 2
-7 2 -19 0 -25z m10 -40 c-3 -8 -6 -5 -6 6 -1 11 2 17 5 13 3 -3 4 -12 1 -19z
m1402 -534 c-21 -25 -95 -63 -156 -78 -48 -13 -109 -16 -294 -14 l-234 2 246
5 245 6 90 45 c93 47 122 57 103 34z m-891 -146 c8 -8 75 -14 201 -17 104 -3
192 -9 195 -12 4 -3 -65 -9 -151 -12 -133 -4 -166 -9 -207 -27 -57 -26 -130
-23 -175 7 -22 15 -59 18 -243 23 -119 3 -220 8 -224 13 -4 4 100 7 232 7 181
1 246 4 269 15 38 17 87 19 103 3z"/>
<path d="M2351 1484 c0 -11 3 -14 6 -6 3 7 2 16 -1 19 -3 4 -6 -2 -5 -13z"/>
<path d="M2340 1431 c0 -13 -9 -34 -20 -48 -22 -29 -19 -43 4 -23 17 13 32 77
22 87 -3 4 -6 -4 -6 -16z"/>
<path d="M2184 1381 c7 -11 46 -35 46 -28 0 3 -12 12 -26 22 -15 9 -23 12 -20
6z"/>
</g>
</svg>
