<?xml version="1.0" standalone="no"?>
<!DOCTYPE svg PUBLIC "-//W3C//DTD SVG 20010904//EN"
 "http://www.w3.org/TR/2001/REC-SVG-20010904/DTD/svg10.dtd">
<svg version="1.0" xmlns="http://www.w3.org/2000/svg"
 width="368.000000pt" height="383.000000pt" viewBox="0 0 368.000000 383.000000"
 preserveAspectRatio="xMidYMid meet">

<g transform="translate(0.000000,383.000000) scale(0.100000,-0.100000)"
fill="#000000" stroke="none">
<path d="M910 3484 c-163 -31 -343 -151 -427 -286 -43 -70 -56 -98 -85 -178
-19 -53 -19 -90 -20 -1060 l0 -1005 25 -67 c38 -105 85 -176 177 -268 65 -66
103 -94 160 -122 148 -72 94 -69 1160 -68 916 0 962 1 1035 20 108 28 208 83
293 164 125 118 190 248 211 416 13 102 15 533 2 526 -9 -6 -22 683 -12 699 3
6 8 -84 11 -200 4 -142 6 -42 8 305 1 420 -1 528 -13 585 -16 77 -79 213 -120
260 l-27 30 21 -32 c31 -46 89 -173 96 -208 3 -21 0 -17 -11 13 -22 58 -31 46
-10 -14 9 -26 16 -61 15 -78 0 -23 -5 -15 -15 29 -46 191 -197 368 -380 444
-97 41 -171 51 -374 50 -169 0 -227 -7 -202 -23 7 -4 17 -4 22 -1 6 3 10 2 10
-3 0 -6 9 -8 20 -5 11 3 20 0 20 -6 0 -6 -18 -11 -45 -11 -24 0 -62 -6 -82
-14 -73 -28 -149 -38 -207 -27 -60 11 -128 49 -122 68 3 6 -2 14 -10 17 -9 3
-133 7 -277 7 -144 1 -372 5 -507 9 l-245 6 315 4 315 3 -285 7 c-157 4 -314
10 -350 13 -36 3 -76 3 -90 1z m1830 -94 c0 -5 -4 -10 -10 -10 -5 0 -10 5 -10
10 0 6 5 10 10 10 6 0 10 -4 10 -10z m-2121 -113 c-72 -67 -148 -183 -179
-274 -13 -40 -30 -75 -38 -78 -9 -3 -12 1 -8 13 2 9 7 33 11 52 8 43 77 186
106 220 16 19 19 21 15 6 -4 -10 25 11 64 48 39 36 74 66 78 66 4 0 -18 -24
-49 -53z m2051 24 c31 -6 -16 -9 -150 -10 -119 -2 -187 -6 -175 -11 11 -5 117
-9 235 -9 234 -1 281 -9 369 -57 68 -36 133 -93 127 -110 -3 -8 0 -11 10 -7 7
3 14 1 14 -4 0 -24 -16 -20 -51 12 -60 54 -139 103 -202 125 -53 19 -84 20
-474 22 -359 1 -462 9 -223 18 52 2 59 4 35 10 -16 4 -289 8 -605 9 -612 1
-623 0 -720 -49 -25 -12 -61 -33 -80 -47 l-35 -24 33 29 c18 16 57 41 87 56
112 55 105 54 965 54 437 0 815 -3 840 -7z m419 -67 c50 -42 27 -41 -26 1 -67
54 -72 59 -37 42 18 -9 46 -28 63 -43z m-11 -68 l27 -29 -30 21 c-16 12 -43
34 -60 48 l-30 26 33 -18 c18 -11 45 -32 60 -48z m-2344 -8 c-5 -7 -29 -44
-55 -83 -59 -88 -87 -165 -104 -285 l-14 -95 6 90 c9 143 46 237 136 346 32
39 45 50 31 27z m2391 -48 c10 -11 16 -20 13 -20 -3 0 -13 9 -23 20 -10 11
-16 20 -13 20 3 0 13 -9 23 -20z m-2566 -106 c-6 -16 -22 -63 -35 -104 l-24
-75 4 53 c3 30 17 79 31 109 26 57 45 70 24 17z m99 -68 c-12 -33 -24 -54 -26
-47 -2 6 -8 8 -14 5 -12 -8 -3 27 18 68 11 22 33 40 41 34 1 -1 -8 -28 -19
-60z m1740 -214 l2 -173 -122 3 c-210 5 -238 -25 -246 -249 l-5 -133 184 -2
c116 -2 183 -7 182 -13 -1 -5 -12 -80 -25 -165 -12 -85 -24 -145 -26 -132 -3
18 20 221 31 275 1 5 -74 11 -167 13 -93 2 -173 7 -177 11 -4 5 -9 67 -11 140
-2 72 -6 129 -10 126 -5 -2 -8 -16 -8 -31 0 -15 -4 -32 -8 -38 -4 -7 -61 -10
-162 -9 l-155 1 -6 55 c-4 35 -6 6 -8 -86 -1 -77 -5 -146 -10 -153 -6 -10 -45
-14 -155 -15 l-146 -2 0 -172 c0 -109 -4 -173 -10 -173 -6 0 -10 68 -10 185
l0 185 155 0 155 0 0 173 c0 187 10 248 56 338 49 97 151 175 269 205 33 9
113 12 240 11 l190 -2 3 -173z m-1891 -304 c-1 -73 -3 -16 -3 127 0 143 2 203
3 133 2 -70 2 -187 0 -260z m2900 -10 c-1 -73 -3 -16 -3 127 0 143 2 203 3
133 2 -70 2 -187 0 -260z m-200 -200 c-1 -40 -3 -10 -3 67 0 77 1 110 3 73 2
-37 2 -100 0 -140z m-2640 -20 c-2 -18 -4 -6 -4 27 0 33 2 48 4 33 2 -15 2
-42 0 -60z m-49 -231 c-2 -181 -7 -288 -13 -290 -11 -2 -20 555 -10 582 4 9 9
11 15 5 7 -7 9 -119 8 -297z m49 91 c-2 -13 -4 -5 -4 17 -1 22 1 32 4 23 2
-10 2 -28 0 -40z m2758 42 c3 -5 1 -10 -4 -10 -6 0 -11 5 -11 10 0 6 2 10 4
10 3 0 8 -4 11 -10z m-1673 -823 c2 -141 0 -257 -4 -257 -5 0 -7 179 -6 398 1
218 4 334 5 257 2 -77 4 -256 5 -398z m375 351 c-2 -35 -3 -7 -3 62 0 69 1 97
3 63 2 -35 2 -91 0 -125z m1344 -186 c46 -17 54 -104 14 -156 -16 -21 -25 -46
-26 -72 0 -21 -8 -62 -17 -91 l-17 -52 -2 117 c-1 64 -3 140 -3 167 -1 28 3
77 8 110 6 33 11 98 13 145 l2 85 9 -125 c6 -69 14 -127 19 -128z m-2804 66
c-2 -24 -4 -7 -4 37 0 44 2 63 4 43 2 -21 2 -57 0 -80z m1460 -450 c-2 -13 -4
-5 -4 17 -1 22 1 32 4 23 2 -10 2 -28 0 -40z m-314 -35 c-7 -2 -21 -2 -30 0
-10 3 -4 5 12 5 17 0 24 -2 18 -5z m-830 -264 c28 -16 47 -29 41 -29 -17 0
-127 69 -154 97 -20 21 -16 20 18 -6 23 -18 66 -46 95 -62z m2147 71 c-26 -48
-144 -111 -245 -129 -32 -6 -133 -10 -224 -10 -198 2 -143 16 71 18 170 2 235
20 334 90 38 28 70 50 72 50 1 1 -2 -8 -8 -19z m-923 -185 c24 -10 74 -15 152
-16 64 -1 170 -5 236 -9 l120 -6 -135 -3 c-221 -4 -337 -15 -359 -35 -11 -10
-43 -20 -73 -23 -47 -5 -60 -2 -97 21 -42 27 -45 27 -284 34 -211 6 -229 8
-142 13 55 4 168 7 250 8 92 1 169 7 200 16 66 18 88 18 132 0z m-224 -92
c-18 -2 -48 -2 -65 0 -18 2 -4 4 32 4 36 0 50 -2 33 -4z"/>
<path d="M2288 3273 c6 -2 18 -2 25 0 6 3 1 5 -13 5 -14 0 -19 -2 -12 -5z"/>
<path d="M2838 3483 c6 -2 18 -2 25 0 6 3 1 5 -13 5 -14 0 -19 -2 -12 -5z"/>
<path d="M2955 3456 c72 -23 137 -53 190 -88 l30 -20 -25 22 c-45 40 -206 111
-249 110 -9 -1 16 -11 54 -24z"/>
<path d="M3235 3290 c27 -27 51 -50 54 -50 3 0 -17 23 -44 50 -27 28 -51 50
-54 50 -3 0 17 -22 44 -50z"/>
</g>
</svg>
