<?xml version="1.0" standalone="no"?>
<!DOCTYPE svg PUBLIC "-//W3C//DTD SVG 20010904//EN"
 "http://www.w3.org/TR/2001/REC-SVG-20010904/DTD/svg10.dtd">
<svg version="1.0" xmlns="http://www.w3.org/2000/svg"
 width="356.000000pt" height="375.000000pt" viewBox="0 0 356.000000 375.000000"
 preserveAspectRatio="xMidYMid meet">

<g transform="translate(0.000000,375.000000) scale(0.100000,-0.100000)"
fill="#000000" stroke="none">
<path d="M800 3363 c-71 -12 -171 -52 -236 -94 -72 -47 -183 -149 -203 -187
-22 -41 19 -16 96 60 43 41 89 80 103 87 17 8 14 3 -10 -15 -133 -104 -233
-249 -281 -408 -27 -88 -28 -90 -28 -44 -1 25 10 79 24 120 29 87 30 95 5 48
-50 -96 -53 -123 -55 -635 -3 -468 -3 -473 6 -170 13 507 15 497 17 -126 2
-592 -6 -868 -18 -604 -4 84 -7 35 -8 -163 -2 -226 1 -298 14 -360 50 -244
243 -453 490 -529 55 -17 117 -18 1024 -18 l965 0 75 23 c127 40 207 88 296
177 64 64 90 100 123 166 73 149 75 169 73 554 0 187 -5 468 -9 625 -8 296 -3
455 8 255 3 -60 5 66 4 280 -2 323 -5 401 -19 453 -16 63 -61 161 -91 197 -9
11 -3 -5 14 -35 28 -52 72 -179 70 -204 0 -6 -7 5 -15 24 -10 24 -13 27 -10
10 3 -14 7 -47 11 -75 4 -41 1 -35 -18 35 -31 107 -49 150 -97 220 -83 122
-228 227 -365 265 -107 29 -520 33 -474 4 12 -7 12 -9 -1 -10 -8 0 -4 -5 10
-9 22 -7 21 -8 -13 -9 -21 -1 -36 -5 -32 -10 6 -11 -12 -17 -85 -27 -30 -3
-65 -10 -78 -15 -13 -5 -40 -5 -65 1 -23 5 -64 13 -91 16 -30 3 -44 9 -37 14
10 5 10 9 2 14 -6 4 -9 11 -7 15 3 4 1 13 -4 21 -8 13 -90 15 -569 15 -324 0
-551 4 -538 9 30 11 300 26 667 35 l305 7 -460 1 c-253 0 -471 -2 -485 -4z
m-63 -59 c-3 -3 -12 -4 -19 -1 -8 3 -5 6 6 6 11 1 17 -2 13 -5z m1493 -122
l155 -7 -110 -6 -110 -5 135 -2 c74 -2 191 -7 259 -12 113 -8 131 -12 197 -45
80 -39 142 -94 192 -169 45 -69 40 -78 -8 -17 -54 68 -129 127 -220 170 l-75
36 -492 6 c-271 3 -496 8 -499 12 -4 4 58 8 137 8 l144 2 -120 9 c-66 5 -317
7 -557 6 -240 -2 -435 -2 -434 -1 21 21 1047 32 1406 15z m717 -95 c16 -16 21
-26 13 -21 -29 17 -120 86 -120 91 0 10 82 -43 107 -70z m-1349 56 c-21 -2
-57 -2 -80 0 -24 2 -7 4 37 4 44 0 63 -2 43 -4z m1307 -100 c46 -42 47 -43 7
-11 -24 18 -57 43 -73 54 -43 31 -49 40 -14 20 17 -10 53 -38 80 -63z m-2341
-50 c-19 -25 -48 -72 -64 -102 -58 -115 -64 -144 -71 -341 l-6 -185 2 195 c1
173 4 202 23 254 24 64 70 141 116 193 41 48 41 40 0 -14z m-152 -129 c-11
-27 -25 -73 -32 -101 -16 -68 -29 -69 -19 -1 8 49 56 164 65 155 3 -2 -4 -26
-14 -53z m88 -65 c-28 -69 -30 -71 -24 -29 5 37 42 115 51 106 1 -1 -11 -36
-27 -77z m1776 -95 c162 -42 279 -160 341 -342 13 -38 17 -109 20 -362 2 -173
0 -369 -5 -435 -8 -98 -9 -45 -11 290 -1 444 -5 485 -57 587 -34 67 -120 157
-182 191 -98 53 -143 58 -587 64 -451 5 -502 1 -615 -54 -69 -34 -157 -121
-193 -193 -52 -105 -57 -159 -55 -575 1 -209 3 -357 5 -330 7 109 15 124 71
129 7 1 17 8 22 16 7 11 10 1 12 -35 3 -84 15 168 19 385 2 167 4 131 9 -195
8 -438 10 -456 70 -547 17 -26 52 -61 78 -78 86 -57 116 -61 472 -67 375 -6
501 3 590 43 94 42 163 132 189 244 13 58 14 742 1 833 -19 127 -93 227 -200
269 -52 20 -77 22 -415 28 -265 5 -319 7 -205 10 340 9 533 4 590 -15 119 -40
185 -107 232 -236 23 -63 23 -71 23 -459 0 -446 -4 -477 -73 -580 -67 -99
-167 -147 -337 -160 l-90 -7 95 -2 c56 -2 87 -6 75 -10 -17 -7 -17 -9 -3 -17
25 -15 32 -51 11 -57 -12 -3 -9 -5 8 -6 15 0 64 10 110 23 100 29 81 7 -21
-25 -101 -31 -259 -41 -616 -37 -307 4 -333 5 -395 26 -185 62 -308 212 -340
414 -17 112 -6 855 15 927 46 164 156 283 311 335 48 16 99 21 255 26 298 11
708 2 776 -16z m-1917 -484 c-3 -30 -6 62 -6 205 l1 260 5 -205 c3 -112 3
-229 0 -260z m1896 445 c28 -7 44 -13 37 -14 -7 0 -11 -5 -7 -10 11 -19 -61
-27 -203 -25 -92 2 -149 7 -158 15 -8 6 -23 9 -34 6 -11 -3 -20 -1 -20 4 0 6
-27 9 -61 8 -33 -1 -64 2 -67 8 -4 5 -14 13 -22 16 -33 12 485 5 535 -8z
m-902 -102 c-7 -2 -19 -2 -25 0 -7 3 -2 5 12 5 14 0 19 -2 13 -5z m1138 -36
l22 -32 -31 29 c-18 17 -32 34 -32 38 0 15 18 0 41 -35z m-1323 -64 c-15 -16
-38 -48 -52 -73 -14 -25 -26 -40 -26 -35 0 23 82 135 99 135 2 0 -7 -12 -21
-27z m1879 -170 c-2 -37 -3 -9 -3 62 0 72 1 102 3 68 2 -34 2 -93 0 -130z
m-782 113 c38 -16 69 -56 62 -83 -3 -15 -6 -14 -14 7 -37 87 -146 80 -168 -10
-8 -32 27 -80 58 -81 12 0 31 -4 42 -9 16 -7 12 -9 -18 -9 -30 -1 -45 6 -68
28 -50 51 -34 127 35 157 39 16 31 16 71 0z m-1838 -128 c-2 -18 -4 -6 -4 27
0 33 2 48 4 33 2 -15 2 -42 0 -60z m1445 11 c125 -26 243 -123 301 -246 27
-60 32 -80 33 -163 l2 -95 -8 80 c-14 140 -53 221 -149 308 -181 162 -487 126
-620 -73 -21 -33 -47 -83 -56 -111 -20 -58 -23 -189 -7 -229 10 -24 11 -24 11
-3 1 17 6 21 23 18 12 -3 30 3 40 12 16 15 18 14 27 -8 11 -29 -7 -62 -35 -68
-23 -4 -34 -19 -27 -37 6 -16 43 4 43 24 0 25 55 -1 100 -48 43 -45 115 -91
142 -90 7 1 -9 12 -37 27 -109 55 -176 158 -174 268 l1 60 13 -70 c16 -91 43
-143 101 -194 142 -125 366 -71 440 106 9 21 20 70 24 108 l7 70 2 -61 c2 -87
-21 -153 -73 -211 -52 -58 -119 -93 -195 -104 -56 -7 -56 -8 19 -6 45 1 84 -3
98 -11 23 -13 31 -52 10 -52 -6 0 -9 -3 -6 -6 7 -7 80 29 128 63 34 23 33 23
-5 -13 -89 -82 -241 -124 -362 -98 -34 7 -83 22 -108 33 -69 31 -149 117 -193
208 -36 75 -37 82 -37 188 0 103 2 114 32 177 90 191 289 290 495 247z m440
-21 c-8 -8 -9 -4 -5 13 4 13 8 18 11 10 2 -7 -1 -18 -6 -23z m-360 -47 c9 -8
-49 -14 -63 -6 -5 4 -7 11 -3 17 6 10 53 3 66 -11z m-74 -71 c23 -10 42 -21
42 -23 0 -3 -19 2 -42 10 -71 25 -166 21 -227 -9 -41 -20 -48 -21 -35 -7 41
46 189 62 262 29z m-1508 -289 c0 -183 -4 -292 -10 -296 -7 -4 -10 95 -10 289
0 191 4 296 10 296 6 0 10 -103 10 -289z m1714 261 c3 -5 -1 -9 -9 -9 -8 0
-12 4 -9 9 3 4 7 8 9 8 2 0 6 -4 9 -8z m-53 -104 c28 -55 23 -58 -9 -7 -16 24
-36 50 -45 58 -9 7 -17 18 -17 24 0 18 51 -36 71 -75z m1158 -657 c1 -38 6
-57 18 -66 23 -17 23 -79 0 -124 -10 -21 -17 -57 -17 -93 0 -32 -4 -58 -8 -58
-5 0 -13 -17 -19 -37 -8 -31 -9 -20 -6 57 3 52 1 119 -5 149 -6 34 -6 65 0 85
5 17 12 85 16 151 6 115 7 117 13 55 4 -36 7 -89 8 -119z m-2569 -636 c13 -14
21 -25 18 -25 -2 0 -15 11 -28 25 -13 14 -21 25 -18 25 2 0 15 -11 28 -25z
m2240 -36 c-53 -46 -167 -97 -240 -109 -64 -9 -347 -6 -358 5 -3 3 75 5 174 5
162 0 185 3 246 24 36 13 87 38 113 55 25 17 52 31 60 31 8 0 17 5 20 10 3 6
9 10 13 10 4 -1 -9 -14 -28 -31z m-2105 -54 c39 -20 59 -33 45 -30 -36 10
-125 62 -141 83 -13 16 -12 16 6 0 11 -9 52 -33 90 -53z m1245 -114 c36 -6
151 -13 255 -18 l190 -7 -219 -8 c-203 -8 -220 -10 -250 -31 -33 -23 -120 -31
-134 -12 -24 34 -62 38 -384 44 l-323 6 327 9 c221 5 343 12 375 21 27 8 59
12 73 10 14 -3 54 -9 90 -14z"/>
<path d="M2413 3363 c15 -2 39 -2 55 0 15 2 2 4 -28 4 -30 0 -43 -2 -27 -4z"/>
<path d="M3080 3156 c0 -2 8 -10 18 -17 15 -13 16 -12 3 4 -13 16 -21 21 -21
13z"/>
<path d="M3120 3106 c0 -2 8 -10 18 -17 15 -13 16 -12 3 4 -13 16 -21 21 -21
13z"/>
</g>
</svg>
