<?xml version="1.0" standalone="no"?>
<!DOCTYPE svg PUBLIC "-//W3C//DTD SVG 20010904//EN"
 "http://www.w3.org/TR/2001/REC-SVG-20010904/DTD/svg10.dtd">
<svg version="1.0" xmlns="http://www.w3.org/2000/svg"
 width="379.000000pt" height="376.000000pt" viewBox="0 0 379.000000 376.000000"
 preserveAspectRatio="xMidYMid meet">

<g transform="translate(0.000000,376.000000) scale(0.100000,-0.100000)"
fill="#000000" stroke="none">
<path d="M932 3425 c7 -7 780 -7 786 0 3 3 -174 5 -393 5 -219 0 -396 -2 -393
-5z"/>
<path d="M1848 3423 c29 -2 74 -2 100 0 26 2 2 3 -53 3 -55 0 -76 -1 -47 -3z"/>
<path d="M2433 3423 c42 -2 112 -2 155 0 42 1 7 3 -78 3 -85 0 -120 -2 -77 -3z"/>
<path d="M878 3413 c7 -3 16 -2 19 1 4 3 -2 6 -13 5 -11 0 -14 -3 -6 -6z"/>
<path d="M838 3403 c7 -3 16 -2 19 1 4 3 -2 6 -13 5 -11 0 -14 -3 -6 -6z"/>
<path d="M740 3375 c-100 -39 -213 -123 -272 -202 -73 -97 -48 -91 56 13 86
85 115 107 191 145 50 24 92 45 94 47 3 1 0 6 -5 11 -5 4 -33 -1 -64 -14z"/>
<path d="M2870 3390 c8 -5 20 -10 25 -10 6 0 3 5 -5 10 -8 5 -19 10 -25 10 -5
0 -3 -5 5 -10z"/>
<path d="M821 3364 c-98 -26 -190 -82 -277 -169 -91 -90 -150 -183 -185 -292
-13 -42 -29 -73 -36 -73 -16 0 -14 124 -15 -970 -1 -876 0 -938 17 -990 73
-224 243 -396 455 -462 l75 -23 965 0 c908 0 969 1 1024 18 238 74 416 258
476 493 18 70 20 112 20 466 0 252 -4 388 -10 388 -6 0 -9 66 -8 183 2 152 3
166 7 82 5 -85 7 -63 15 150 12 347 3 637 -23 738 -30 114 -92 226 -170 306
-45 46 -50 50 -16 12 28 -31 65 -79 83 -108 36 -57 86 -178 96 -233 l6 -35
-14 35 -15 35 5 -50 c4 -48 3 -46 -24 35 -35 105 -58 149 -115 226 -80 105
-216 196 -342 227 -75 19 -319 30 -400 18 -33 -4 -51 -9 -40 -10 17 -1 18 -3
5 -11 -10 -6 -11 -10 -2 -10 6 0 12 -4 12 -10 0 -5 -12 -10 -26 -10 -14 0 -23
-4 -20 -9 9 -14 -48 -21 -158 -20 -84 0 -212 14 -168 18 10 1 10 6 2 21 -6 11
-9 24 -6 29 11 17 -126 21 -628 20 -413 0 -521 -3 -565 -15z m1857 -129 c6 -6
-191 -8 -1093 -9 -374 -1 -691 -5 -705 -10 -14 -5 -22 -5 -17 -1 28 31 127 34
966 29 464 -2 847 -6 849 -9z m112 -25 c18 -12 2 -12 -25 0 -13 6 -15 9 -5 9
8 0 22 -4 30 -9z m215 -61 c17 -17 23 -28 15 -23 -27 16 -120 86 -120 90 0 12
79 -38 105 -67z m-2219 24 c-65 -35 -186 -142 -186 -165 0 -6 10 -3 22 8 17
15 16 11 -7 -23 -28 -44 -44 -58 -25 -24 13 24 13 34 1 26 -13 -7 -71 -158
-81 -209 l-8 -41 -1 35 c-2 90 82 247 174 325 51 44 150 105 170 105 6 -1 -21
-17 -59 -37z m919 27 c-3 -5 -15 -10 -26 -10 -10 0 -19 5 -19 10 0 6 12 10 26
10 14 0 23 -4 19 -10z m1028 -5 c115 -30 214 -100 287 -205 18 -26 1 -14 -64
43 -55 48 -119 92 -165 115 l-76 37 -437 5 c-240 3 -440 8 -444 13 -4 4 184 7
417 7 344 0 436 -3 482 -15z m170 -39 c29 -19 65 -50 82 -68 l30 -33 -35 31
c-19 17 -60 48 -90 68 -30 20 -51 36 -47 36 5 0 32 -15 60 -34z m-2429 -263
c-13 -38 -24 -76 -24 -86 0 -10 -4 -15 -10 -12 -13 8 -13 56 0 89 7 19 48 76
55 76 1 0 -9 -30 -21 -67z m106 -4 c0 8 2 12 5 9 3 -2 -1 -22 -9 -44 -9 -24
-15 -31 -15 -19 -1 17 -3 17 -11 5 -13 -20 -12 -10 1 29 9 24 14 29 20 19 7
-11 9 -11 9 1z m1557 -98 c18 -98 67 -182 147 -259 61 -58 83 -72 142 -90 38
-12 86 -24 106 -28 44 -7 44 -7 40 -187 l-3 -127 -57 6 c-125 14 -283 73 -351
129 l-31 27 0 -354 c0 -393 -3 -417 -65 -545 -48 -97 -133 -182 -228 -227 -89
-42 -154 -56 -260 -56 -156 0 -278 51 -387 161 -215 216 -227 536 -28 754 102
112 219 168 381 181 l86 7 3 -34 c2 -19 2 -91 0 -160 l-3 -126 -53 5 c-30 2
-69 -1 -88 -7 -48 -16 -114 -75 -141 -125 -30 -57 -30 -164 0 -222 50 -94 162
-154 261 -139 60 9 138 51 168 90 54 72 54 66 54 751 l0 634 148 0 147 0 12
-59z m-1698 -313 c-1 -145 -5 -245 -8 -223 -7 45 -3 485 4 485 3 0 4 -118 4
-262z m58 45 c-1 -43 -3 -10 -3 72 0 83 2 118 3 78 2 -40 2 -107 0 -150z
m2614 -411 c-6 -33 -9 33 -10 229 0 152 2 279 7 283 10 11 14 -456 3 -512z
m196 216 c-1 -51 -3 -12 -3 87 0 99 2 141 3 93 2 -48 2 -129 0 -180z m-667 13
c0 -5 -9 -7 -20 -4 -11 3 -20 7 -20 9 0 2 9 4 20 4 11 0 20 -4 20 -9z m-2143
-133 c-2 -13 -4 -5 -4 17 -1 22 1 32 4 23 2 -10 2 -28 0 -40z m-57 -294 c0
-194 -3 -293 -10 -289 -6 4 -10 111 -10 289 0 249 3 296 17 296 2 0 3 -133 3
-296z m57 144 c-2 -13 -4 -5 -4 17 -1 22 1 32 4 23 2 -10 2 -28 0 -40z m1200
46 c-3 -3 -12 -4 -19 -1 -8 3 -5 6 6 6 11 1 17 -2 13 -5z m1523 -79 c7 -9 8
-15 2 -15 -5 0 -12 7 -16 15 -3 8 -4 15 -2 15 2 0 9 -7 16 -15z m-2723 -27
c-3 -8 -6 -5 -6 6 -1 11 2 17 5 13 3 -3 4 -12 1 -19z m0 -285 c-2 -16 -4 -5
-4 22 0 28 2 40 4 28 2 -13 2 -35 0 -50z m2781 -351 c13 -13 22 -35 22 -54 0
-35 -20 -98 -31 -98 -4 0 -10 -30 -14 -66 -4 -37 -16 -85 -26 -108 -11 -22
-17 -32 -14 -21 14 45 16 143 5 185 -21 81 -23 109 -6 150 10 26 16 71 16 128
0 139 14 153 21 21 5 -101 8 -118 27 -137z m-2781 -34 c-1 -46 -3 -9 -3 82 0
91 2 128 3 83 2 -46 2 -120 0 -165z m1583 -127 c-80 -113 -272 -203 -425 -200
-44 1 -42 3 25 10 157 18 266 67 357 160 32 32 59 59 61 59 2 0 -6 -13 -18
-29z m-641 -147 c14 -12 -19 -1 -35 12 -18 14 -18 14 6 3 14 -6 27 -13 29 -15z
m98 -30 c-3 -3 -12 -4 -19 -1 -8 3 -5 6 6 6 11 1 17 -2 13 -5z m46 -11 c-7 -2
-19 -2 -25 0 -7 3 -2 5 12 5 14 0 19 -2 13 -5z m-788 -303 c39 -23 61 -39 50
-36 -41 14 -127 72 -163 111 l-37 40 40 -37 c22 -20 72 -56 110 -78z m2131 44
c-52 -45 -116 -81 -185 -101 -46 -13 -96 -16 -276 -14 -120 1 -221 4 -224 6
-2 3 93 5 211 5 246 0 291 9 401 77 120 75 131 79 73 27z m-546 -193 l115 -6
-208 -7 c-136 -5 -214 -11 -223 -19 -36 -29 -145 -27 -165 4 -4 5 -144 12
-330 17 -255 5 -290 7 -164 10 88 1 234 6 325 10 163 7 426 4 650 -9z"/>
<path d="M561 2864 c0 -11 3 -14 6 -6 3 7 2 16 -1 19 -3 4 -6 -2 -5 -13z"/>
<path d="M3040 3306 c0 -2 8 -10 18 -17 15 -13 16 -12 3 4 -13 16 -21 21 -21
13z"/>
<path d="M3271 2965 c1 -19 18 -51 18 -35 0 8 -4 22 -9 30 -5 8 -9 11 -9 5z"/>
</g>
</svg>
