<?xml version="1.0" standalone="no"?>
<!DOCTYPE svg PUBLIC "-//W3C//DTD SVG 20010904//EN"
 "http://www.w3.org/TR/2001/REC-SVG-20010904/DTD/svg10.dtd">
<svg version="1.0" xmlns="http://www.w3.org/2000/svg"
 width="351.000000pt" height="350.000000pt" viewBox="0 0 351.000000 350.000000"
 preserveAspectRatio="xMidYMid meet">

<g transform="translate(0.000000,350.000000) scale(0.100000,-0.100000)"
fill="#000000" stroke="none">
<path d="M783 3219 c-222 -37 -451 -243 -519 -468 -23 -77 -15 -71 15 10 15
42 42 99 60 128 33 51 49 66 37 34 -4 -10 15 7 42 37 27 30 71 70 98 89 44 31
43 29 -19 -29 -108 -100 -181 -219 -215 -351 -17 -63 -20 -70 -27 -49 l-9 25
-7 -25 c-4 -14 -6 -160 -6 -325 1 -252 2 -273 7 -135 3 91 6 -96 6 -415 0
-319 -3 -539 -6 -490 -4 57 -7 -16 -8 -198 -2 -327 5 -381 66 -505 68 -138
180 -250 317 -318 132 -65 111 -64 1145 -64 1046 0 1011 -2 1160 71 117 58
238 178 297 296 73 144 77 181 69 612 -3 207 -9 478 -12 604 -5 159 -3 227 4
227 6 0 13 -24 15 -52 3 -29 3 120 2 332 -3 420 -5 439 -65 568 -35 76 -48 83
-15 8 35 -79 44 -125 35 -176 -4 -25 -8 -36 -9 -25 -3 44 -54 177 -91 233
-162 251 -397 340 -804 305 -111 -9 -81 -24 66 -33 l123 -7 -140 -2 c-101 -1
-145 -5 -158 -15 -13 -10 -15 -15 -5 -19 17 -6 -116 -21 -167 -19 -62 3 -193
19 -167 21 27 1 27 6 2 31 -12 12 -18 24 -16 29 11 17 -98 21 -578 22 -281 1
-472 5 -446 10 25 4 97 8 160 9 63 1 108 5 100 8 -8 4 163 9 380 12 l395 5
-530 2 c-291 0 -553 -3 -582 -8z m1827 -89 c0 -5 -5 -10 -11 -10 -5 0 -7 5 -4
10 3 6 8 10 11 10 2 0 4 -4 4 -10z m-55 -97 c-27 -2 -138 -7 -245 -12 l-195
-8 215 -1 c266 -2 365 -14 445 -51 87 -41 195 -144 195 -187 0 -4 -31 23 -69
59 -76 73 -179 130 -266 146 -27 5 -194 8 -370 6 -176 -1 -354 1 -395 5 l-75
7 106 2 c59 0 122 4 140 9 42 9 -987 19 -1127 11 -87 -5 -110 -11 -171 -40
-80 -38 -89 -33 -12 6 107 55 86 54 1014 52 473 0 838 -2 810 -4z m385 -69
c23 -26 21 -25 -20 6 -62 46 -70 55 -35 37 17 -8 41 -28 55 -43z m0 -80 c17
-19 10 -15 -20 10 -61 53 -71 63 -35 39 17 -12 41 -34 55 -49z m-2332 -1 c-66
-70 -96 -116 -134 -208 l-29 -70 -5 -330 -6 -330 -2 315 c-2 355 2 386 65 500
31 56 141 180 160 180 3 0 -19 -26 -49 -57z m2383 -60 c13 -16 12 -17 -3 -4
-17 13 -22 21 -14 21 2 0 10 -8 17 -17z m-2562 -70 c-6 -16 -22 -66 -35 -113
l-24 -85 4 58 c3 31 16 82 30 112 26 57 44 76 25 28z m2569 -8 c-3 -3 -9 2
-12 12 -6 14 -5 15 5 6 7 -7 10 -15 7 -18z m-2457 -17 c-5 -13 -18 -43 -29
-68 -19 -43 -21 -43 -21 -16 -1 17 11 47 25 68 30 43 37 48 25 16z m1465 -153
c264 -67 491 -272 595 -540 89 -228 76 -503 -32 -718 -109 -214 -267 -356
-493 -441 -92 -35 -172 -48 -296 -47 -141 0 -245 22 -355 76 -49 24 -94 40
-100 35 -10 -8 -353 -105 -414 -116 -30 -6 -32 -5 -24 12 6 10 38 108 72 217
l62 199 -24 41 c-36 61 -83 201 -96 284 -75 481 252 935 730 1013 41 6 81 13
89 15 37 8 203 -9 286 -30z m-1631 -543 c-13 -14 -15 23 -8 259 l8 254 3 -254
c1 -140 0 -256 -3 -259z m2882 311 c-2 -21 -4 -6 -4 32 0 39 2 55 4 38 2 -18
2 -50 0 -70z m-190 -125 c-2 -18 -4 -4 -4 32 0 36 2 50 4 33 2 -18 2 -48 0
-65z m-2687 -518 c0 -193 -4 -300 -10 -300 -6 0 -10 107 -10 300 0 193 4 300
10 300 6 0 10 -107 10 -300z m2795 120 c3 -5 1 -10 -4 -10 -6 0 -11 5 -11 10
0 6 2 10 4 10 3 0 8 -4 11 -10z m-2738 -327 c-2 -21 -4 -6 -4 32 0 39 2 55 4
38 2 -18 2 -50 0 -70z m2768 -245 c4 -60 10 -106 15 -103 23 14 28 -126 5
-149 -10 -9 -15 -34 -15 -69 0 -29 -3 -57 -7 -61 -5 -4 -16 -28 -26 -54 -15
-42 -17 -43 -12 -12 16 96 17 165 5 215 -10 41 -10 64 -1 99 6 25 14 101 18
168 8 131 9 130 18 -34z m-2778 -125 c-3 -10 -5 -2 -5 17 0 19 2 27 5 18 2
-10 2 -26 0 -35z m308 -627 c33 -20 55 -36 49 -36 -16 0 -127 74 -144 96 -12
15 -10 15 10 -3 14 -11 52 -37 85 -57z m2133 40 c-55 -49 -129 -85 -205 -101
-68 -15 -393 -22 -380 -9 3 4 86 9 184 11 198 6 252 20 349 88 26 19 51 32 55
29 4 -2 10 0 14 6 3 5 9 10 13 10 4 -1 -10 -16 -30 -34z m-868 -161 c36 -8
146 -18 245 -22 l180 -7 -160 -7 c-199 -9 -234 -14 -248 -32 -15 -19 -92 -36
-140 -32 -21 2 -53 15 -72 29 -34 26 -34 26 -302 34 -264 7 -266 7 -128 13 77
4 201 7 275 9 85 1 148 7 170 15 47 18 101 18 180 0z m-317 -92 c-7 -2 -21 -2
-30 0 -10 3 -4 5 12 5 17 0 24 -2 18 -5z"/>
<path d="M1770 2460 c14 -4 38 -8 54 -9 58 -2 15 -14 -81 -22 -54 -4 -120 -10
-148 -14 -49 -5 -49 -5 -20 9 17 7 57 17 90 21 33 5 51 10 41 13 -55 12 -285
-63 -360 -118 -232 -170 -357 -439 -326 -703 13 -104 53 -231 96 -303 19 -31
34 -61 34 -67 0 -5 -18 -68 -41 -139 -22 -72 -39 -132 -37 -134 3 -2 69 16
149 41 125 38 146 42 159 30 32 -29 168 -84 250 -100 364 -74 733 131 858 477
84 234 60 459 -74 680 -62 102 -180 203 -315 268 -46 22 -90 40 -98 39 -9 0
11 -14 44 -30 51 -25 55 -28 25 -23 -19 3 -57 9 -85 13 -27 4 -68 17 -90 29
l-40 22 45 1 c36 1 40 2 20 8 -35 11 -181 21 -150 11z m-243 -334 c7 -6 32
-60 57 -120 l46 -109 -51 -54 -50 -53 23 -42 c38 -71 184 -210 257 -246 35
-18 72 -32 81 -32 11 0 36 27 61 65 30 43 51 64 64 64 11 0 67 -23 125 -52
l105 -53 -1 -47 c-1 -89 -90 -172 -197 -184 -100 -12 -315 79 -443 186 -93 77
-195 205 -247 310 -68 137 -63 244 17 338 41 48 117 63 153 29z"/>
<path d="M2388 3223 c56 -2 148 -2 205 0 56 1 10 3 -103 3 -113 0 -159 -2
-102 -3z"/>
<path d="M2930 3146 c0 -3 9 -10 20 -16 11 -6 20 -8 20 -6 0 3 -9 10 -20 16
-11 6 -20 8 -20 6z"/>
</g>
</svg>
