<?xml version="1.0" standalone="no"?>
<!DOCTYPE svg PUBLIC "-//W3C//DTD SVG 20010904//EN"
 "http://www.w3.org/TR/2001/REC-SVG-20010904/DTD/svg10.dtd">
<svg version="1.0" xmlns="http://www.w3.org/2000/svg"
 width="371.000000pt" height="394.000000pt" viewBox="0 0 371.000000 394.000000"
 preserveAspectRatio="xMidYMid meet">

<g transform="translate(0.000000,394.000000) scale(0.100000,-0.100000)"
fill="#000000" stroke="none">
<path d="M1030 3511 c-141 -6 -176 -11 -237 -33 -94 -33 -156 -70 -219 -130
-68 -64 -66 -88 3 -32 29 24 63 48 75 54 15 7 13 3 -7 -12 -135 -103 -240
-258 -276 -403 -6 -28 -17 -57 -24 -65 -10 -12 -12 -214 -11 -965 3 -1059 -3
-970 74 -1120 54 -105 182 -229 292 -284 150 -74 124 -72 1196 -68 1055 3 982
-2 1132 73 126 62 257 202 318 341 47 105 52 156 57 538 3 198 2 340 -2 315
-11 -66 -17 168 -11 415 4 200 4 200 11 80 3 -66 5 69 4 300 -1 409 -2 422
-24 490 -23 70 -67 165 -76 165 -3 0 3 -17 14 -37 22 -45 38 -96 22 -73 -18
26 -21 5 -6 -45 23 -76 16 -77 -10 -2 -75 216 -246 373 -471 432 -67 17 -484
22 -484 5 0 -12 70 -25 165 -31 22 -2 -20 -5 -93 -8 -82 -4 -135 -10 -140 -17
-4 -6 -31 -15 -60 -19 -62 -8 -307 6 -252 15 28 4 32 7 19 15 -21 13 -31 43
-16 48 24 8 -317 17 -693 19 -361 1 -372 2 -174 8 122 4 219 12 230 18 17 10
15 11 -12 12 -17 0 -58 2 -90 4 -32 2 -133 1 -224 -3z m-261 -85 c-10 -9 -89
-46 -89 -41 0 6 72 44 84 45 5 0 7 -2 5 -4z m1796 -108 c-93 -5 -478 -7 -855
-4 -402 4 -709 2 -742 -4 -31 -5 -84 -20 -117 -33 -70 -28 -79 -27 -21 3 96
49 86 49 1025 48 655 -1 836 -3 710 -10z m490 -78 c26 -28 21 -26 -37 15 -38
25 -68 49 -68 51 0 12 78 -38 105 -66z m-196 16 c71 -33 139 -85 176 -136 43
-59 27 -54 -44 12 -79 73 -169 121 -255 137 -36 7 -240 12 -505 13 -393 2
-415 3 -191 8 140 3 368 3 505 0 l250 -5 64 -29z m106 -21 l20 -16 -20 10
c-11 5 -29 17 -40 26 l-20 16 20 -10 c11 -5 29 -17 40 -26z m-2273 -70 c-63
-69 -121 -169 -143 -245 -7 -25 -15 -101 -19 -170 l-7 -125 -1 115 c-3 188 36
295 152 417 38 40 71 73 73 73 3 0 -22 -29 -55 -65z m2319 38 c13 -16 12 -17
-3 -4 -17 13 -22 21 -14 21 2 0 10 -8 17 -17z m-2505 -194 c-7 -19 -20 -60
-26 -91 -7 -32 -17 -58 -22 -58 -10 0 -10 -1 3 62 12 53 47 134 55 126 2 -3
-2 -20 -10 -39z m114 -14 c5 3 4 -9 -2 -27 -15 -46 -22 -49 -14 -8 7 35 7 35
-8 10 -18 -30 -21 -21 -4 16 7 14 14 21 16 15 2 -6 8 -9 12 -6z m-163 -237
c-2 -13 -4 -3 -4 22 0 25 2 35 4 23 2 -13 2 -33 0 -45z m2910 -280 c-1 -51 -3
-12 -3 87 0 99 2 141 3 93 2 -48 2 -129 0 -180z m-1825 211 c5 -15 392 -538
398 -538 3 1 59 62 125 136 66 75 178 198 248 275 l128 138 76 0 75 0 -70 -77
c-38 -43 -169 -186 -291 -318 -122 -132 -219 -245 -217 -252 3 -7 44 -65 92
-130 48 -65 129 -174 179 -243 50 -69 149 -203 218 -298 70 -94 127 -174 127
-177 0 -3 -107 -5 -238 -5 l-239 0 -100 138 c-55 75 -146 199 -201 275 -56 77
-103 144 -106 150 -2 7 -21 -5 -43 -28 -82 -87 -413 -452 -444 -492 l-34 -42
-78 0 -77 -1 208 233 c115 127 250 277 299 331 l90 100 -206 275 c-266 356
-405 544 -409 554 -2 4 107 7 241 7 168 0 246 -3 249 -11z m1625 -136 c-3 -10
-5 -4 -5 12 0 17 2 24 5 18 2 -7 2 -21 0 -30z m-2697 -123 c0 -67 -4 -110 -10
-110 -11 0 -14 202 -3 213 12 13 13 7 13 -103z m2697 -102 c-3 -8 -6 -5 -6 6
-1 11 2 17 5 13 3 -3 4 -12 1 -19z m-2697 -343 c0 -190 -4 -295 -10 -295 -6 0
-10 105 -10 295 0 190 4 295 10 295 6 0 10 -105 10 -295z m2815 105 c3 -5 1
-10 -4 -10 -6 0 -11 5 -11 10 0 6 2 10 4 10 3 0 8 -4 11 -10z m44 -638 c18 -6
41 -58 41 -92 0 -33 -25 -90 -39 -90 -5 0 -13 -28 -19 -62 -12 -74 -43 -190
-49 -185 -2 3 4 37 13 78 12 53 14 90 9 138 -11 91 -9 153 6 326 l14 150 6
-130 c4 -83 11 -131 18 -133z m-2609 -607 c13 -14 21 -25 18 -25 -2 0 -15 11
-28 25 -13 14 -21 25 -18 25 2 0 15 -11 28 -25z m110 -82 c0 -7 -61 31 -73 46
-7 8 7 2 31 -14 23 -15 42 -30 42 -32z m2119 35 c-87 -71 -187 -98 -354 -97
-85 1 -101 3 -70 10 22 4 79 8 126 8 96 1 166 21 243 68 54 34 94 42 55 11z
m-501 -95 c-10 -2 -28 -2 -40 0 -13 2 -5 4 17 4 22 1 32 -1 23 -4z m-108 -73
c129 -3 210 -8 180 -9 -30 -1 -138 -6 -240 -10 -161 -7 -190 -11 -225 -30 -51
-27 -75 -27 -133 4 -42 22 -60 25 -162 26 -63 1 -178 5 -255 8 l-140 8 225 3
c124 1 257 6 295 10 39 5 104 6 145 3 41 -3 181 -9 310 -13z"/>
<path d="M1448 2338 c398 -535 679 -915 717 -970 l40 -57 108 -1 c59 0 107 2
107 5 0 3 -91 128 -203 278 -111 150 -243 327 -292 394 -50 66 -170 230 -269
362 l-178 241 -109 0 -109 0 188 -252z"/>
<path d="M2453 3513 c32 -2 81 -2 110 0 29 2 3 3 -58 3 -60 0 -84 -1 -52 -3z"/>
</g>
</svg>
