<?xml version="1.0" standalone="no"?>
<!DOCTYPE svg PUBLIC "-//W3C//DTD SVG 20010904//EN"
 "http://www.w3.org/TR/2001/REC-SVG-20010904/DTD/svg10.dtd">
<svg version="1.0" xmlns="http://www.w3.org/2000/svg"
 width="383.000000pt" height="397.000000pt" viewBox="0 0 383.000000 397.000000"
 preserveAspectRatio="xMidYMid meet">

<g transform="translate(0.000000,397.000000) scale(0.100000,-0.100000)"
fill="#000000" stroke="none">
<path d="M864 3515 c-124 -42 -233 -118 -320 -224 -61 -73 -126 -198 -143
-276 -7 -34 -11 -310 -12 -865 0 -448 -1 -878 -2 -955 -1 -128 1 -146 25 -213
77 -215 240 -380 448 -454 l65 -23 985 0 c923 0 989 1 1049 18 190 54 343 182
431 362 72 145 69 96 72 1135 3 861 2 940 -14 1003 -59 226 -240 425 -455 496
-34 12 -73 21 -85 20 -13 0 2 -7 32 -15 169 -45 321 -160 414 -312 44 -75 48
-87 51 -154 3 -71 2 -72 -9 -33 -44 144 -144 279 -267 361 -138 91 -240 114
-502 113 -100 0 -191 -4 -202 -9 -17 -7 -17 -9 -2 -9 9 -1 17 -6 17 -12 0 -8
13 -10 38 -6 20 3 57 2 82 -3 35 -6 19 -8 -72 -9 -65 0 -118 -5 -118 -10 0
-22 -94 -37 -212 -33 -44 2 -62 7 -77 24 -11 11 -19 24 -16 27 2 4 0 13 -5 21
-8 13 -89 16 -517 22 -279 4 -530 5 -558 3 -37 -3 -43 -2 -25 4 14 5 95 10
180 12 131 2 144 3 85 9 -38 4 -119 8 -180 9 -92 0 -122 -4 -181 -24z m1036
-69 c0 -2 -8 -10 -17 -17 -16 -13 -17 -12 -4 4 13 16 21 21 21 13z m-100 -10
c0 -3 -4 -8 -10 -11 -5 -3 -10 -1 -10 4 0 6 5 11 10 11 6 0 10 -2 10 -4z
m-1177 -118 c-76 -80 -132 -171 -165 -270 -25 -77 -38 -93 -38 -50 0 59 72
232 96 232 3 0 2 -5 -2 -12 -5 -7 -3 -8 5 -4 7 5 10 14 7 22 -3 8 -2 13 2 11
4 -1 40 31 79 71 40 39 75 72 79 72 4 0 -24 -33 -63 -72z m1902 43 l130 -8
-160 -3 -160 -3 232 -8 c251 -8 324 -20 403 -66 62 -36 171 -144 198 -195 14
-27 16 -34 5 -18 -36 49 -75 90 -83 85 -4 -2 -18 7 -31 21 -33 35 -154 109
-209 127 -36 12 -140 16 -529 21 -493 5 -651 15 -300 17 l194 2 -125 9 c-160
11 -1108 6 -1135 -6 -11 -5 -17 -5 -12 -1 26 29 134 33 787 33 366 0 724 -4
795 -7z m-1605 -41 c-8 -5 -19 -10 -25 -10 -5 0 -3 5 5 10 8 5 20 10 25 10 6
0 3 -5 -5 -10z m2083 -30 c26 -16 47 -32 47 -36 0 -4 -6 -2 -13 4 -6 6 -32 22
-57 36 -25 14 -40 26 -34 26 5 0 31 -13 57 -30z m136 -24 c38 -40 11 -30 -39
15 -38 34 -40 38 -15 25 17 -8 41 -26 54 -40z m-2259 39 c0 -2 -10 -9 -22 -15
-22 -11 -22 -10 -4 4 21 17 26 19 26 11z m2245 -115 c10 -11 16 -20 13 -20 -3
0 -13 9 -23 20 -10 11 -16 20 -13 20 3 0 13 -9 23 -20z m-2422 -42 c-43 -63
-70 -121 -94 -202 -22 -75 -25 -52 -4 29 18 67 64 156 103 198 14 15 27 27 28
27 2 0 -13 -24 -33 -52z m-134 -113 c-10 -33 -24 -80 -30 -105 -16 -63 -24
-29 -9 39 12 53 47 137 55 129 2 -1 -5 -30 -16 -63z m107 -34 c-26 -66 -32
-76 -39 -58 -10 26 8 73 41 110 14 15 26 27 27 27 1 0 -12 -36 -29 -79z m2751
-518 c-1 -59 -3 -13 -3 102 0 116 2 164 3 108 2 -56 2 -151 0 -210z m-2897 40
c0 -108 -4 -173 -9 -168 -9 9 -3 345 5 345 2 0 4 -80 4 -177z m1840 157 c210
-14 281 -25 339 -54 85 -44 119 -96 141 -216 15 -77 28 -360 18 -360 -5 0 -8
34 -8 74 0 106 -27 296 -50 359 -50 134 -127 156 -618 178 -210 10 -332 10
-540 1 -319 -14 -388 -23 -455 -60 -86 -46 -113 -107 -142 -317 -8 -53 -13
-74 -14 -50 -1 58 17 182 35 243 20 72 79 135 149 161 49 18 183 37 325 44
145 8 673 6 820 -3z m1077 -793 c-1 -89 -3 -13 -3 168 0 182 2 254 3 162 2
-93 2 -241 0 -330z m-2917 143 c0 -187 -4 -290 -10 -290 -6 0 -10 103 -10 290
0 187 4 290 10 290 6 0 10 -103 10 -290z m1490 154 c132 -75 240 -139 240
-143 0 -3 -92 -59 -204 -124 -112 -66 -222 -130 -245 -144 l-41 -24 0 285 c0
157 2 286 5 286 3 0 113 -61 245 -136z m1349 -591 c1 -60 4 -74 21 -86 26 -18
36 -84 20 -133 -7 -22 -17 -42 -21 -45 -5 -3 -13 -36 -18 -75 -5 -38 -16 -87
-25 -109 -16 -40 -16 -40 -9 -5 4 19 5 76 3 125 -4 112 -3 144 6 330 6 113 10
140 15 110 4 -22 8 -72 8 -112z m-2568 -670 c13 -16 12 -17 -3 -4 -10 7 -18
15 -18 17 0 8 8 3 21 -13z m100 -103 c30 -16 50 -30 44 -30 -18 0 -110 58
-150 95 l-40 37 46 -36 c26 -20 71 -50 100 -66z m2129 45 c-12 -13 -56 -40
-97 -62 l-76 -38 -246 -1 -246 -1 225 7 c233 7 254 10 346 58 21 12 52 32 69
45 36 30 55 24 25 -8z m-876 -165 c33 -5 151 -13 261 -17 l200 -7 -220 -8
c-156 -6 -231 -12 -258 -23 -48 -19 -98 -19 -145 1 -30 13 -94 17 -337 23
l-300 6 300 9 c165 4 318 12 340 16 58 11 90 11 159 0z"/>
</g>
</svg>
